<svg width="213" height="60" viewBox="0 0 213 60" fill="none" xmlns="http://www.w3.org/2000/svg">
<path d="M6.05544 29.8781C6.05544 29.0796 5.73645 28.3138 5.16864 27.7492C4.60083 27.1846 3.83072 26.8673 3.02772 26.8673C2.22472 26.8673 1.45461 27.1846 0.886798 27.7492C0.318991 28.3138 0 29.0796 0 29.8781V29.9055C0.00365001 30.704 0.326141 31.4684 0.89653 32.0305C1.46692 32.5925 2.23848 32.9063 3.04148 32.9026C3.84448 32.899 4.61314 32.5783 5.17837 32.0111C5.7436 31.4439 6.05909 30.6767 6.05544 29.8781Z" fill="white"/>
<path d="M3.89473 22.4004C4.26142 22.5534 4.65483 22.633 5.05249 22.6348C5.45015 22.6366 5.84426 22.5604 6.21232 22.4107C6.58038 22.261 6.91518 22.0407 7.1976 21.7623C7.48002 21.4839 7.70452 21.1529 7.85829 20.7882L7.89132 20.7088C8.10567 20.1568 8.15168 19.5542 8.0236 18.9763C7.89552 18.3984 7.59902 17.8709 7.17116 17.4596C6.7433 17.0483 6.20305 16.7715 5.6179 16.6638C5.03276 16.5561 4.42867 16.6223 3.88112 16.854C3.33356 17.0858 2.86683 17.4728 2.53922 17.9668C2.21162 18.4609 2.03768 19.0399 2.03913 19.6317C2.04058 20.2234 2.21737 20.8016 2.54739 21.2941C2.87741 21.7865 3.34604 22.1713 3.89473 22.4004Z" fill="white"/>
<path d="M10.9219 13.9017C11.4197 13.9029 11.9102 13.782 12.3498 13.5496C12.7895 13.3173 13.1647 12.9808 13.4423 12.5699C13.72 12.1589 13.8914 11.6862 13.9415 11.1936C13.9915 10.7011 13.9187 10.2038 13.7293 9.74595C13.54 9.28807 13.2401 8.88368 12.8561 8.5686C12.4721 8.25351 12.0158 8.03745 11.5278 7.93955C11.0398 7.84165 10.535 7.86494 10.0582 8.00734C9.58138 8.14974 9.14723 8.40687 8.7942 8.75596L8.77494 8.77512C8.35567 9.19722 8.07116 9.73309 7.95712 10.3154C7.84309 10.8978 7.90462 11.5007 8.13399 12.0484C8.36335 12.5961 8.75033 13.0642 9.24633 13.3939C9.74233 13.7236 10.3252 13.9003 10.9219 13.9017Z" fill="white"/>
<path d="M7.88577 39.031C7.57732 38.3021 6.99291 37.7232 6.25879 37.4193C5.52467 37.1154 4.69978 37.1108 3.96233 37.4067C3.22489 37.7025 2.63408 38.275 2.31756 39.0004C2.00105 39.7258 1.98422 40.546 2.27073 41.2836C2.27073 41.2836 2.29 41.3356 2.2955 41.3466C2.52512 41.8947 2.91261 42.3631 3.40922 42.6928C3.90582 43.0225 4.48939 43.1988 5.08651 43.1996C5.58437 43.1985 6.07429 43.0753 6.51286 42.841C6.95143 42.6067 7.32513 42.2684 7.60086 41.8562C7.87658 41.444 8.04583 40.9705 8.09361 40.4777C8.14138 39.9849 8.06621 39.488 7.87476 39.031H7.88577Z" fill="white"/>
<path d="M19.6884 8.06348C20.1357 8.06378 20.5774 7.96555 20.9819 7.77584C21.3865 7.58613 21.7437 7.30965 22.0279 6.96629C22.3122 6.62293 22.5164 6.22121 22.626 5.79C22.7355 5.3588 22.7476 4.90882 22.6614 4.47241C22.5752 4.03599 22.3929 3.62399 22.1275 3.26601C21.862 2.90804 21.5202 2.61298 21.1264 2.40204C20.7327 2.1911 20.2968 2.06953 19.8502 2.04606C19.4036 2.0226 18.9573 2.09781 18.5434 2.26631L18.4966 2.28547C17.8558 2.55865 17.3295 3.04336 17.0065 3.65773C16.6835 4.27211 16.5836 4.97851 16.7237 5.65764C16.8638 6.33678 17.2352 6.94703 17.7754 7.38535C18.3155 7.82367 18.9912 8.0632 19.6884 8.06348Z" fill="white"/>
<path d="M49.1261 13.8716C49.7219 13.8713 50.3043 13.6962 50.8005 13.3683C51.2967 13.0403 51.6846 12.5741 51.9156 12.0279C52.1465 11.4818 52.2103 10.8801 52.099 10.298C51.9876 9.716 51.706 9.17959 51.2895 8.75595C51.2698 8.73362 51.2487 8.7126 51.2262 8.693C50.8694 8.35099 50.4336 8.10131 49.9571 7.96589C49.4806 7.83046 48.9779 7.81342 48.4932 7.91627C48.0085 8.01912 47.5566 8.23871 47.1772 8.55577C46.7978 8.87282 46.5024 9.27765 46.3171 9.73471C46.1317 10.1918 46.062 10.6871 46.1141 11.1772C46.1662 11.6673 46.3385 12.1372 46.6158 12.5456C46.8931 12.9541 47.2671 13.2886 47.7047 13.5197C48.1424 13.7509 48.6305 13.8718 49.1261 13.8716Z" fill="white"/>
<path d="M52.2006 20.7061C52.2049 20.7203 52.2105 20.734 52.2171 20.7472C52.5365 21.4748 53.1319 22.0476 53.8738 22.3408C54.6156 22.6341 55.444 22.6241 56.1785 22.313C56.913 22.0019 57.4943 21.415 57.7957 20.6798C58.0972 19.9447 58.0945 19.121 57.7882 18.3878C57.6412 18.0136 57.4204 17.6725 57.1388 17.3844C56.8572 17.0964 56.5205 16.8673 56.1485 16.7107C55.7766 16.554 55.3768 16.473 54.9728 16.4724C54.5689 16.4717 54.1689 16.5514 53.7964 16.7069C53.4239 16.8623 53.0864 17.0903 52.8039 17.3774C52.5213 17.6645 52.2995 18.005 52.1513 18.3787C52.0031 18.7524 51.9316 19.1518 51.941 19.5534C51.9504 19.955 52.0406 20.3507 52.2061 20.7171L52.2006 20.7061Z" fill="white"/>
<path d="M30.0266 6.02161C30.8296 6.02161 31.5998 5.7044 32.1676 5.13977C32.7354 4.57513 33.0544 3.80932 33.0544 3.01081C33.0544 2.21229 32.7354 1.44648 32.1676 0.881844C31.5998 0.317209 30.8296 0 30.0266 0H30.0019C29.6043 0.00161748 29.2109 0.0810958 28.8442 0.233897C28.4774 0.386699 28.1446 0.60983 27.8646 0.890553C27.5846 1.17128 27.3629 1.50409 27.2123 1.87C27.0616 2.23591 26.9849 2.62774 26.9865 3.02312C26.9882 3.41851 27.0681 3.8097 27.2217 4.17437C27.3754 4.53904 27.5998 4.87004 27.8821 5.14847C28.1644 5.42691 28.4991 5.64733 28.867 5.79714C29.235 5.94695 29.629 6.02323 30.0266 6.02161Z" fill="white"/>
<path d="M20.8912 51.9337L20.85 51.9172C20.1075 51.6127 19.2739 51.6139 18.5324 51.9206C17.7909 52.2273 17.2023 52.8144 16.896 53.5527C16.5898 54.2909 16.591 55.1199 16.8994 55.8573C17.2079 56.5946 17.7982 57.18 18.5406 57.4845C19.2792 57.7821 20.1059 57.7782 20.8416 57.4737C21.5773 57.1691 22.1625 56.5884 22.4704 55.8575C22.7783 55.1266 22.7841 54.3045 22.4864 53.5694C22.1887 52.8343 21.6116 52.2456 20.8802 51.9309L20.8912 51.9337Z" fill="white"/>
<path d="M39.1703 7.80618L39.2667 7.8445C39.6171 7.98243 39.9907 8.05302 40.3677 8.05252C41.1248 8.05444 41.8556 7.77677 42.4186 7.27331C42.9815 6.76985 43.3364 6.07647 43.4145 5.32761C43.4925 4.57874 43.2882 3.82772 42.8411 3.22015C42.394 2.61257 41.7359 2.19172 40.9945 2.03918C40.2531 1.88665 39.4811 2.01329 38.8283 2.39455C38.1754 2.77582 37.6882 3.38455 37.461 4.10274C37.2339 4.82093 37.2829 5.59742 37.5988 6.28167C37.9146 6.96593 38.4746 7.5092 39.1703 7.80618Z" fill="white"/>
<path d="M13.0687 46.7167C12.785 46.4396 12.4491 46.2208 12.0803 46.0727C11.7115 45.9247 11.317 45.8503 10.9193 45.8539C10.1161 45.861 9.34872 46.1852 8.78589 46.7551C8.50721 47.0372 8.28714 47.3712 8.13825 47.7379C7.98936 48.1047 7.91457 48.497 7.91815 48.8925C7.92538 49.6912 8.25137 50.4543 8.82443 51.014C9.39453 51.5665 10.1605 51.8735 10.9566 51.8686C11.7527 51.8636 12.5148 51.5471 13.0779 50.9875C13.641 50.4279 13.9598 49.6703 13.9653 48.8786C13.9708 48.087 13.6626 47.3251 13.1073 46.7578L13.0687 46.7167Z" fill="white"/>
<path d="M39.2007 51.9336C38.834 52.0866 38.5012 52.3098 38.2213 52.5907C37.9414 52.8715 37.7198 53.2045 37.5693 53.5705C37.4187 53.9365 37.3421 54.3283 37.3439 54.7238C37.3457 55.1192 37.4257 55.5104 37.5795 55.8751C37.7333 56.2397 37.9579 56.5707 38.2403 56.849C38.5227 57.1274 38.8575 57.3477 39.2255 57.4974C39.5936 57.6471 39.9877 57.7233 40.3853 57.7215C40.783 57.7198 41.1764 57.6401 41.5431 57.4872H41.5679C42.307 57.1751 42.8911 56.5837 43.1918 55.8433C43.4925 55.1028 43.4851 54.2739 43.1712 53.5389C42.8573 52.8039 42.2626 52.223 41.518 51.924C40.7734 51.625 39.9399 51.6324 39.2007 51.9446V51.9336Z" fill="white"/>
<path d="M30.0323 53.7319C29.6347 53.7328 29.2411 53.8116 28.8741 53.9637C28.5071 54.1159 28.1739 54.3384 27.8934 54.6186C27.3268 55.1845 27.0096 55.9511 27.0114 56.7496C27.0123 57.145 27.0915 57.5363 27.2445 57.9012C27.3975 58.2662 27.6213 58.5976 27.9031 58.8765C28.1849 59.1555 28.5192 59.3765 28.8868 59.527C29.2545 59.6775 29.6484 59.7544 30.046 59.7535C30.849 59.7499 31.6177 59.4292 32.1829 58.862C32.7481 58.2948 33.0636 57.5276 33.06 56.7291C33.0563 55.9305 32.7338 55.1662 32.1634 54.6041C31.5931 54.042 30.8215 53.7283 30.0185 53.7319H30.0323Z" fill="white"/>
<path d="M46.993 46.7578C46.425 47.3226 46.106 48.0886 46.106 48.8873C46.106 49.686 46.425 50.452 46.993 51.0167C47.5609 51.5815 48.3312 51.8988 49.1344 51.8988C49.9376 51.8988 50.7079 51.5815 51.2758 51.0167L51.2951 50.9976C51.8605 50.4303 52.1761 49.6628 52.1725 48.8641C52.1688 48.0654 51.8463 47.3009 51.2758 46.7387C50.7053 46.1764 49.9336 45.8626 49.1304 45.8662C48.3272 45.8698 47.5583 46.1905 46.993 46.7578Z" fill="white"/>
<path d="M57.0614 26.8208C56.6627 26.8208 56.2678 26.8991 55.8996 27.0513C55.5314 27.2035 55.197 27.4264 54.9156 27.7075C54.6343 27.9885 54.4116 28.322 54.2602 28.6889C54.1089 29.0558 54.0319 29.4488 54.0337 29.8453C54.0324 29.8544 54.0324 29.8636 54.0337 29.8727C54.0325 29.8827 54.0325 29.8928 54.0337 29.9028C54.0337 30.7013 54.3527 31.4671 54.9205 32.0317C55.4883 32.5964 56.2584 32.9136 57.0614 32.9136C57.8644 32.9136 58.6346 32.5964 59.2024 32.0317C59.7702 31.4671 60.0892 30.7013 60.0892 29.9028V29.8179C60.0855 29.0218 59.7649 28.2595 59.1975 27.6978C58.6301 27.1361 57.8621 26.8208 57.0614 26.8208Z" fill="white"/>
<path d="M56.1861 37.3805C55.8194 37.2275 55.426 37.1479 55.0284 37.1461C54.6307 37.1443 54.2366 37.2205 53.8685 37.3702C53.5005 37.5199 53.1657 37.7402 52.8833 38.0186C52.6009 38.297 52.3763 38.628 52.2226 38.9927C52.2159 39.0058 52.2104 39.0196 52.2061 39.0337C51.923 39.7671 51.9393 40.5815 52.2516 41.303C52.5639 42.0246 53.1474 42.5962 53.8776 42.8959C54.6079 43.1955 55.427 43.1995 56.1601 42.907C56.8933 42.6145 57.4824 42.0486 57.8018 41.3301C57.9571 40.9654 58.0385 40.5737 58.0413 40.1776C58.0441 39.7816 57.9683 39.3888 57.8182 39.0219C57.6681 38.655 57.4467 38.3212 57.1666 38.0395C56.8866 37.7578 56.5534 37.5339 56.1861 37.3805Z" fill="white"/>
<path d="M47.2489 40.5391C47.694 40.5392 48.1304 40.4167 48.5098 40.1853C48.8893 39.9539 49.1969 39.6226 49.3986 39.228C49.3986 39.1979 49.4288 39.1678 49.4426 39.135C49.6576 38.6644 49.7138 38.1373 49.6027 37.6324C49.4917 37.1274 49.2193 36.6718 48.8263 36.3335C48.4334 35.9952 47.9409 35.7924 47.4225 35.7554C46.904 35.7183 46.3874 35.8491 45.9499 36.1281C45.5124 36.4071 45.1773 36.8194 44.9949 37.3034C44.8124 37.7873 44.7922 38.317 44.9375 38.8133C45.0827 39.3096 45.3855 39.7458 45.8006 40.0569C46.2157 40.3679 46.7209 40.5371 47.2406 40.5391H47.2489Z" fill="white"/>
<path d="M31.9231 10.8006C31.7777 11.4176 31.8844 12.0667 32.2198 12.6055C32.5553 13.1444 33.092 13.5288 33.7122 13.6745L33.7865 13.6937C33.954 13.7284 34.1246 13.7459 34.2957 13.7457C34.8882 13.744 35.4592 13.5252 35.8997 13.1311C36.3401 12.737 36.619 12.1953 36.683 11.6096C36.7471 11.0239 36.5918 10.4353 36.2468 9.95628C35.9018 9.47728 35.3914 9.14153 34.8132 9.01324C34.1916 8.86965 33.5382 8.97722 32.9963 9.31233C32.4544 9.64744 32.0684 10.1827 31.9231 10.8006Z" fill="white"/>
<path d="M49.1508 27.4394C48.5121 27.4394 47.8995 27.6917 47.4478 28.1409C46.9962 28.59 46.7424 29.1992 46.7424 29.8344V29.9055C46.7424 30.5407 46.9962 31.1499 47.4478 31.599C47.8995 32.0482 48.5121 32.3005 49.1508 32.3005C49.7896 32.3005 50.4022 32.0482 50.8539 31.599C51.3055 31.1499 51.5593 30.5407 51.5593 29.9055V29.8344C51.5593 29.1992 51.3055 28.59 50.8539 28.1409C50.4022 27.6917 49.7896 27.4394 49.1508 27.4394Z" fill="white"/>
<path d="M18.1443 47.1328C18.6433 47.1328 19.13 46.9787 19.5371 46.6918C19.9442 46.4049 20.2516 45.9994 20.4169 45.5312C20.5822 45.063 20.5972 44.5553 20.4598 44.0783C20.3224 43.6013 20.0394 43.1785 19.6499 42.8684L19.6114 42.8383C19.1064 42.4933 18.4881 42.3526 17.8825 42.445C17.2768 42.5374 16.7294 42.8558 16.3516 43.3355C15.9737 43.8151 15.794 44.4199 15.8489 45.0268C15.9037 45.6336 16.1891 46.1969 16.647 46.6018C17.0708 46.943 17.599 47.1303 18.1443 47.1328Z" fill="white"/>
<path d="M40.0429 13.5185C39.7451 13.89 39.5642 14.3408 39.5231 14.8141C39.482 15.2875 39.5824 15.7624 39.8118 16.1792C40.0411 16.596 40.3892 16.9362 40.8123 17.157C41.2354 17.3777 41.7146 17.4693 42.1899 17.4201C42.6651 17.371 43.1152 17.1833 43.4835 16.8807C43.8519 16.5781 44.1221 16.174 44.2603 15.7192C44.3985 15.2643 44.3985 14.779 44.2603 14.3242C44.1221 13.8694 43.8519 13.4653 43.4835 13.1627L43.4285 13.1189C42.9262 12.7255 42.2874 12.5467 41.6525 12.6216C41.0176 12.6966 40.4386 13.0192 40.0429 13.5185Z" fill="white"/>
<path d="M25.7604 13.7539C25.9458 13.7549 26.1306 13.7338 26.3109 13.691C26.6206 13.6247 26.914 13.4984 27.1745 13.3192C27.435 13.14 27.6574 12.9115 27.8289 12.6467C28.0005 12.3819 28.1178 12.0861 28.1742 11.7761C28.2306 11.4662 28.225 11.1483 28.1577 10.8405C28.0904 10.5327 27.9626 10.2412 27.7818 9.98254C27.601 9.72392 27.3707 9.50331 27.1041 9.33332C26.8374 9.16334 26.5397 9.04734 26.2279 8.99194C25.9161 8.93655 25.5963 8.94287 25.287 9.01053L25.2264 9.02421C24.6481 9.15562 24.1389 9.49464 23.7964 9.9763C23.4539 10.458 23.3023 11.0484 23.3705 11.6344C23.4387 12.2203 23.722 12.7607 24.166 13.1518C24.6101 13.5429 25.1837 13.7573 25.7769 13.7539H25.7604Z" fill="white"/>
<path d="M10.6548 20.6021C10.5165 20.8855 10.4358 21.1933 10.4171 21.5077C10.3984 21.8222 10.4422 22.1372 10.546 22.4349C10.6498 22.7325 10.8115 23.0069 11.0219 23.2423C11.2323 23.4778 11.4873 23.6698 11.7723 23.8073C12.0573 23.9448 12.3667 24.0251 12.683 24.0436C12.9992 24.0622 13.316 24.0186 13.6153 23.9154C13.9146 23.8123 14.1905 23.6515 14.4273 23.4422C14.6641 23.233 14.8572 22.9794 14.9954 22.696L15.0202 22.644C15.2883 22.07 15.317 21.4139 15.1001 20.8189C14.8832 20.2239 14.4383 19.7385 13.8626 19.4687C13.2869 19.1989 12.6272 19.1667 12.0277 19.3791C11.4282 19.5914 10.9375 20.0312 10.663 20.6021H10.6548Z" fill="white"/>
<path d="M33.7397 46.0708C33.1171 46.2123 32.5764 46.5941 32.2368 47.132C31.8971 47.67 31.7863 48.32 31.9286 48.9393C32.071 49.5585 32.4548 50.0961 32.9958 50.4338C33.5368 50.7716 34.1905 50.8818 34.8132 50.7403H34.8573C35.4503 50.5678 35.954 50.1753 36.2642 49.6439C36.5744 49.1125 36.6674 48.4829 36.5238 47.8852C36.3803 47.2876 36.0113 46.7677 35.4931 46.433C34.9749 46.0984 34.3472 45.9746 33.7397 46.0872V46.0708Z" fill="white"/>
<path d="M28.1495 48.9447C28.2213 48.6385 28.2317 48.3211 28.1801 48.0109C28.1285 47.7006 28.0158 47.4035 27.8486 47.1366C27.6814 46.8697 27.463 46.6381 27.2057 46.4553C26.9484 46.2724 26.6574 46.1417 26.3493 46.0708L26.2558 46.0516C25.7918 45.9634 25.312 46.0127 24.876 46.1936C24.4401 46.3744 24.0672 46.6787 23.8039 47.0687C23.5405 47.4586 23.3983 47.917 23.3949 48.3867C23.3915 48.8564 23.5271 49.3168 23.7848 49.7104C24.0424 50.1041 24.4109 50.4137 24.8441 50.6008C25.2774 50.7879 25.7565 50.8441 26.2217 50.7625C26.6868 50.6809 27.1176 50.465 27.4604 50.1418C27.8032 49.8186 28.0428 49.4023 28.1495 48.9447ZM25.7328 48.7066L25.8044 48.4028L25.7328 48.7066Z" fill="white"/>
<path d="M10.941 27.4777C10.3034 27.4784 9.69209 27.7302 9.24074 28.178C8.78939 28.6258 8.53478 29.2332 8.53259 29.8672V29.8973C8.53259 30.2117 8.59491 30.523 8.71598 30.8134C8.83704 31.1038 9.01449 31.3676 9.23817 31.5898C9.46185 31.812 9.72737 31.9881 10.0196 32.1082C10.3117 32.2283 10.6249 32.2899 10.941 32.2895C11.5781 32.2888 12.189 32.0374 12.6403 31.5901C13.0916 31.1429 13.3465 30.5363 13.3494 29.9028V29.8699C13.3494 29.5555 13.2871 29.2442 13.166 28.9538C13.045 28.6634 12.8675 28.3996 12.6438 28.1774C12.4202 27.9552 12.1546 27.7791 11.8625 27.659C11.5703 27.5389 11.2572 27.4773 10.941 27.4777Z" fill="white"/>
<path d="M40.4723 42.8438L40.4173 42.8876C40.0314 43.2001 39.752 43.6237 39.6176 44.1002C39.4831 44.5768 39.5 45.083 39.6661 45.5496C39.8321 46.0162 40.1391 46.4204 40.5451 46.7067C40.9511 46.9931 41.4362 47.1476 41.9339 47.1492C42.4862 47.1463 43.0203 46.9528 43.445 46.6018C43.6985 46.4092 43.911 46.1685 44.0702 45.8935C44.2294 45.6186 44.332 45.3149 44.3722 45.0002C44.4124 44.6855 44.3893 44.366 44.3043 44.0602C44.2192 43.7545 44.0739 43.4685 43.8769 43.2191C43.6798 42.9696 43.4348 42.7616 43.1562 42.607C42.8776 42.4525 42.5709 42.3545 42.2539 42.3188C41.9369 42.2832 41.6159 42.3105 41.3096 42.3992C41.0033 42.4879 40.7178 42.6362 40.4696 42.8355L40.4723 42.8438Z" fill="white"/>
<path d="M45.1047 22.6933C45.3054 23.0938 45.6145 23.4307 45.9971 23.6662C46.3798 23.9017 46.8209 24.0264 47.2709 24.0262C47.6419 24.0273 48.0079 23.941 48.3389 23.7744C48.6218 23.6352 48.8743 23.4419 49.0819 23.2055C49.2895 22.969 49.4481 22.6942 49.5486 22.3966C49.6491 22.0991 49.6895 21.7847 49.6676 21.4716C49.6456 21.1585 49.5617 20.8528 49.4206 20.572C49.2875 20.2836 49.0981 20.0244 48.8634 19.8094C48.6287 19.5944 48.3533 19.428 48.0534 19.3197C47.7534 19.2115 47.4348 19.1636 47.1161 19.1788C46.7973 19.194 46.4848 19.2721 46.1967 19.4085C45.9086 19.5448 45.6505 19.7368 45.4376 19.9732C45.2248 20.2095 45.0612 20.4856 44.9566 20.7854C44.8519 21.0852 44.8082 21.4026 44.8279 21.7193C44.8477 22.0361 44.9306 22.3457 45.0717 22.6303L45.1047 22.6933Z" fill="white"/>
<path d="M18.1168 17.4326C18.6629 17.4332 19.193 17.2488 19.6196 16.9098L19.6416 16.8906C20.0945 16.4816 20.3739 15.9165 20.4231 15.3101C20.4723 14.7037 20.2875 14.1014 19.9064 13.6256C19.5252 13.1497 18.9762 12.8359 18.3708 12.7479C17.7655 12.6599 17.1491 12.8043 16.6469 13.1518L16.6249 13.1682C16.2354 13.4783 15.9524 13.9011 15.815 14.3781C15.6776 14.8551 15.6926 15.3628 15.8579 15.831C16.0232 16.2992 16.3307 16.7047 16.7378 16.9916C17.1449 17.2785 17.6315 17.4326 18.1305 17.4326H18.1168Z" fill="white"/>
<path d="M11.8026 35.9408C11.2244 36.2109 10.7777 36.6981 10.5604 37.2954C10.3432 37.8928 10.3732 38.5514 10.6438 39.1268L10.6768 39.1925C10.8764 39.5959 11.1856 39.9356 11.5695 40.1732C11.9533 40.4107 12.3964 40.5365 12.8485 40.5364C13.2141 40.5373 13.575 40.4539 13.9027 40.2928C14.4691 40.0075 14.9005 39.513 15.1046 38.9152C15.3087 38.3174 15.2692 37.6639 14.9945 37.0947C14.7198 36.5255 14.2319 36.086 13.6352 35.8703C13.0386 35.6546 12.3807 35.6799 11.8026 35.9408Z" fill="white"/>
<path d="M36.6739 20.7143C36.5075 20.8793 36.3755 21.0754 36.2855 21.2912C36.1954 21.507 36.149 21.7384 36.149 21.972C36.149 22.2057 36.1954 22.4371 36.2855 22.6529C36.3755 22.8687 36.5075 23.0647 36.6739 23.2297L36.7042 23.2626C37.0432 23.5929 37.5004 23.7757 37.975 23.7708C38.4497 23.7659 38.9029 23.5738 39.2351 23.2366C39.5672 22.8994 39.7511 22.4448 39.7461 21.9728C39.7412 21.5008 39.548 21.0501 39.2089 20.7198C39.0432 20.5532 38.8461 20.4208 38.6287 20.3303C38.4114 20.2398 38.1782 20.1929 37.9425 20.1924C37.7069 20.1919 37.4735 20.2378 37.2558 20.3273C37.038 20.4169 36.8403 20.5484 36.6739 20.7143Z" fill="white"/>
<path d="M37.951 39.5401C38.4123 39.5405 38.8559 39.364 39.1897 39.0474L39.2502 38.9872C39.5361 38.6912 39.7105 38.3062 39.744 37.8971C39.7774 37.4881 39.6678 37.0801 39.4337 36.7421C39.1996 36.4041 38.8554 36.1568 38.4591 36.042C38.0629 35.9272 37.6389 35.952 37.2589 36.1121C36.8789 36.2722 36.5661 36.5579 36.3734 36.9208C36.1807 37.2838 36.1199 37.7017 36.2013 38.1041C36.2827 38.5064 36.5012 38.8685 36.82 39.1291C37.1388 39.3898 37.5383 39.533 37.951 39.5346V39.5401Z" fill="white"/>
<path d="M28.2211 18.7382C28.2211 19.21 28.4096 19.6625 28.7451 19.9962C29.0806 20.3298 29.5357 20.5173 30.0102 20.5173H30.0652C30.5397 20.5118 30.9926 20.3192 31.3243 19.9817C31.6559 19.6442 31.8392 19.1895 31.8337 18.7176C31.8282 18.2458 31.6345 17.7954 31.2951 17.4656C30.9557 17.1358 30.4984 16.9536 30.0239 16.959C29.7878 16.9572 29.5537 17.0019 29.335 17.0905C29.1164 17.1791 28.9175 17.3099 28.7499 17.4753C28.5823 17.6407 28.4493 17.8374 28.3586 18.0541C28.2678 18.2709 28.2211 18.5034 28.2211 18.7382Z" fill="white"/>
<path d="M18.8489 28.0963C18.3753 28.0963 17.9211 28.283 17.5857 28.6154C17.2503 28.9479 17.0612 29.399 17.0598 29.8699V29.9C17.0598 30.3719 17.2482 30.8244 17.5838 31.158C17.9193 31.4917 18.3744 31.6791 18.8489 31.6791C19.3234 31.6791 19.7784 31.4917 20.1139 31.158C20.4495 30.8244 20.638 30.3719 20.638 29.9V29.8644C20.6358 29.3943 20.4462 28.9441 20.1109 28.6127C19.7755 28.2813 19.3217 28.0956 18.8489 28.0963Z" fill="white"/>
<path d="M20.872 39.0228C21.0361 39.1869 21.2313 39.3171 21.4462 39.4058C21.6611 39.4946 21.8916 39.5402 22.1244 39.5401C22.5419 39.5462 22.9486 39.4082 23.2754 39.1496C23.6021 38.8911 23.8286 38.5279 23.9163 38.1219C24.004 37.7159 23.9475 37.2923 23.7564 36.9231C23.5653 36.5539 23.2515 36.2619 22.8683 36.097C22.4851 35.932 22.0562 35.9042 21.6547 36.0183C21.2533 36.1324 20.9039 36.3814 20.6663 36.7228C20.4286 37.0642 20.3173 37.477 20.3513 37.8909C20.3853 38.3047 20.5625 38.6941 20.8527 38.9926L20.872 39.0228Z" fill="white"/>
<path d="M23.3877 20.7417C23.0519 20.4089 22.5971 20.2221 22.123 20.2221C21.6488 20.2221 21.194 20.4089 20.8582 20.7417L20.8252 20.7746C20.5814 21.0254 20.4173 21.342 20.3533 21.685C20.2894 22.028 20.3283 22.3821 20.4654 22.7032C20.6025 23.0243 20.8316 23.2981 21.1242 23.4905C21.4167 23.683 21.7598 23.7855 22.1106 23.7854C22.4656 23.7864 22.813 23.6827 23.1088 23.4874C23.4045 23.292 23.6354 23.0138 23.7721 22.688C23.9088 22.3622 23.9453 22.0033 23.8769 21.6569C23.8085 21.3104 23.6382 20.9919 23.3877 20.7417Z" fill="white"/>
<path d="M41.2485 31.6819C41.723 31.6819 42.1781 31.4944 42.5136 31.1608C42.8491 30.8271 43.0376 30.3746 43.0376 29.9028V29.8316C43.0373 29.5987 42.9906 29.3682 42.9004 29.1532C42.8102 28.9383 42.6782 28.7432 42.512 28.5792C42.3457 28.4152 42.1485 28.2854 41.9317 28.1973C41.7149 28.1093 41.4827 28.0647 41.2485 28.0662C40.7728 28.0683 40.3173 28.258 39.982 28.5935C39.6466 28.9291 39.4587 29.3831 39.4594 29.8562V29.9028C39.4594 30.3746 39.6479 30.8271 39.9834 31.1608C40.319 31.4944 40.774 31.6819 41.2485 31.6819Z" fill="white"/>
<path d="M30.0295 42.7945H30.057C30.5315 42.7945 30.9866 42.6071 31.3221 42.2734C31.6576 41.9398 31.8461 41.4872 31.8461 41.0154C31.8461 40.5435 31.6576 40.091 31.3221 39.7574C30.9866 39.4237 30.5315 39.2363 30.057 39.2363H30.0185C29.544 39.2363 29.0889 39.4237 28.7534 39.7574C28.4179 40.091 28.2294 40.5435 28.2294 41.0154C28.2294 41.4872 28.4179 41.9398 28.7534 42.2734C29.0889 42.6071 29.544 42.7945 30.0185 42.7945H30.0295Z" fill="white"/>
<path d="M126.537 28.6629H122.793V41.259H126.537V28.6629Z" fill="white"/>
<path d="M95.0924 41.2617V39.4853C94.2355 40.8831 92.9235 41.5829 91.1564 41.5847C90.5607 41.592 89.9697 41.4783 89.4196 41.2508C88.9062 41.0361 88.4453 40.714 88.0681 40.3065C87.6824 39.8805 87.3816 39.3854 87.1818 38.8476C86.9598 38.2409 86.8506 37.5991 86.8598 36.9535V28.6629H90.6885V36.4417C90.6885 38.0101 90.9252 38.7956 92.34 38.7956C93.1987 38.7956 93.8465 38.5265 94.2832 37.9882C94.7375 37.3996 94.9693 36.6711 94.9383 35.9299V28.6629H98.6872V41.2535L95.0924 41.2617Z" fill="white"/>
<path d="M116.771 41.2617V33.5185C116.802 32.8432 116.608 32.1766 116.22 31.6217C116.055 31.3905 115.836 31.2032 115.581 31.0763C115.326 30.9493 115.044 30.8866 114.759 30.8936C114.456 30.8902 114.156 30.9592 113.886 31.095C113.615 31.2307 113.381 31.4292 113.204 31.6737C112.781 32.2342 112.564 32.9222 112.59 33.6225V41.2617H109.149V33.5705C109.158 33.1437 109.122 32.7172 109.042 32.2977C108.993 32.0123 108.871 31.744 108.69 31.5177C108.521 31.3247 108.299 31.1849 108.051 31.1153C107.745 31.0305 107.428 30.9909 107.11 30.9976C105.733 30.9976 105.045 31.8288 105.045 33.4911V41.2617H101.302V28.6711H105.04V30.3571C105.475 29.5086 105.997 28.9284 106.606 28.6163C107.292 28.2873 108.047 28.1268 108.808 28.1483C109.198 28.1445 109.587 28.1794 109.97 28.2523C110.293 28.315 110.604 28.4335 110.886 28.6027C111.171 28.7799 111.43 28.9944 111.657 29.2404C111.925 29.5314 112.169 29.8435 112.386 30.1737C112.675 29.531 113.155 28.9921 113.762 28.63C114.406 28.2928 115.127 28.1268 115.854 28.1483C116.462 28.1419 117.065 28.2525 117.63 28.474C118.147 28.6777 118.616 28.9873 119.006 29.3827C119.393 29.7762 119.7 30.241 119.909 30.7513C120.128 31.2788 120.239 31.8446 120.236 32.4154V41.2754L116.771 41.2617Z" fill="white"/>
<path d="M122.793 41.2617V28.6711H126.537V41.2617H122.793Z" fill="white"/>
<path d="M140.527 31.0031C140.335 30.5225 140.046 30.0865 139.677 29.7221C139.311 29.3699 138.871 29.1026 138.389 28.9393C137.866 28.7567 137.316 28.6642 136.762 28.6656C135.912 28.6359 135.068 28.8244 134.312 29.213C133.748 29.5368 133.274 29.9972 132.936 30.5515V28.6629H129.195V41.2535H132.939V34.1371C132.963 32.3123 133.804 31.4 135.463 31.4C136.231 31.4 136.77 31.5669 137.09 31.8981C137.409 32.2293 137.563 32.867 137.563 33.8141V41.248H140.841V32.7576C140.853 32.158 140.746 31.5619 140.527 31.0031Z" fill="white"/>
<path d="M154.416 31.4739C154.219 30.8909 153.86 30.375 153.381 29.9849C152.812 29.5531 152.169 29.2276 151.482 29.0242C150.678 28.7899 149.843 28.6809 149.005 28.7012C148.16 28.6834 147.318 28.7876 146.503 29.0105C145.894 29.1821 145.331 29.4838 144.852 29.8945C144.432 30.2661 144.113 30.7367 143.924 31.2631C143.728 31.8233 143.623 32.4109 143.613 33.0039H146.641C146.698 32.5107 146.912 32.0486 147.252 31.6846C147.577 31.3534 148.116 31.1865 148.865 31.1865C149.391 31.161 149.914 31.2774 150.379 31.5231C150.538 31.6161 150.673 31.7464 150.771 31.9028C150.869 32.0591 150.927 32.2368 150.941 32.4205C150.954 32.6042 150.923 32.7884 150.849 32.9573C150.775 33.1262 150.661 33.2746 150.516 33.3898C150.241 33.5787 149.69 33.7347 148.865 33.8497C148.039 33.9646 147.293 34.0932 146.602 34.2356C145.973 34.3517 145.367 34.5739 144.813 34.8925C144.315 35.1881 143.909 35.6142 143.638 36.1242C143.326 36.78 143.18 37.5017 143.214 38.2263C143.197 38.6768 143.275 39.1258 143.445 39.5438C143.615 39.9618 143.872 40.3392 144.199 40.6513C144.86 41.2736 145.898 41.5847 147.315 41.5847C148.067 41.5998 148.815 41.4687 149.517 41.1987C150.056 40.9901 150.543 40.6701 150.948 40.2599V41.2617H154.692V33.5185C154.701 32.8272 154.608 32.1383 154.416 31.4739ZM150.756 37.6433C150.602 37.9613 150.39 38.2481 150.131 38.489C149.861 38.7347 149.547 38.9287 149.206 39.0611C148.835 39.2036 148.44 39.2751 148.042 39.2718C146.992 39.2718 146.467 38.8157 146.467 37.9033C146.454 37.6736 146.494 37.4439 146.585 37.2324C146.676 37.0209 146.816 36.8336 146.993 36.6853C147.343 36.4024 147.986 36.1698 148.92 35.9873C149.384 35.904 149.843 35.7962 150.296 35.6643C150.535 35.5964 150.757 35.482 150.951 35.3277V37.0603C150.913 37.2626 150.847 37.4588 150.756 37.6433Z" fill="white"/>
<path d="M157.527 41.2617V24.5463H161.27V41.2617H157.527Z" fill="white"/>
<path d="M78.0105 24.549H74.2561V41.2617H78.0105V24.549Z" fill="white"/>
<path d="M86.1001 38.1223H78.6381V41.2617H86.1001V38.1223Z" fill="white"/>
<path d="M124.596 27.0179C125.926 27.0179 127.004 25.9456 127.004 24.6229C127.004 23.3002 125.926 22.228 124.596 22.228C123.266 22.228 122.188 23.3002 122.188 24.6229C122.188 25.9456 123.266 27.0179 124.596 27.0179Z" fill="white"/>
<path d="M189.227 31.4739C189.029 30.8909 188.67 30.375 188.192 29.9849C187.623 29.5531 186.979 29.2276 186.293 29.0242C185.489 28.7899 184.653 28.6809 183.816 28.7012C182.971 28.6834 182.128 28.7876 181.314 29.0105C180.705 29.1821 180.141 29.4838 179.662 29.8946C179.242 30.2651 178.923 30.7361 178.737 31.2631C178.539 31.8228 178.433 32.4106 178.423 33.0039H181.451C181.51 32.5096 181.727 32.0472 182.07 31.6846C182.395 31.3534 182.935 31.1865 183.683 31.1865C184.209 31.1611 184.732 31.2774 185.197 31.5231C185.357 31.6162 185.492 31.7464 185.59 31.9028C185.688 32.0591 185.746 32.2368 185.76 32.4205C185.773 32.6042 185.742 32.7884 185.668 32.9573C185.594 33.1262 185.479 33.2746 185.335 33.3898C185.06 33.5787 184.509 33.7347 183.683 33.8497C182.858 33.9646 182.112 34.0933 181.421 34.2356C180.791 34.3522 180.186 34.5744 179.632 34.8925C179.134 35.1881 178.727 35.6142 178.456 36.1242C178.145 36.78 177.999 37.5017 178.033 38.2263C178.015 38.6768 178.094 39.1258 178.264 39.5438C178.434 39.9618 178.691 40.3393 179.018 40.6513C179.679 41.2736 180.717 41.5847 182.134 41.5847C182.886 41.5992 183.634 41.4682 184.336 41.1988C184.873 40.9894 185.36 40.6695 185.764 40.2599V41.2617H189.502V33.5185C189.511 32.8272 189.419 32.1384 189.227 31.4739ZM185.759 36.9481C185.76 37.018 185.752 37.0878 185.737 37.1561C185.699 37.3217 185.641 37.4824 185.566 37.6351C185.412 37.9531 185.201 38.2399 184.941 38.4808C184.671 38.7265 184.358 38.9205 184.016 39.0529C183.645 39.1954 183.25 39.2669 182.852 39.2636C181.803 39.2636 181.278 38.8075 181.278 37.8951C181.264 37.6654 181.304 37.4357 181.396 37.2242C181.487 37.0127 181.627 36.8254 181.804 36.6771C182.152 36.3942 182.794 36.1616 183.73 35.9791C184.194 35.8961 184.654 35.7883 185.106 35.6561C185.345 35.5882 185.568 35.4738 185.762 35.3195L185.759 36.9481ZM199.838 28.693V31.9994C199.54 31.9503 199.239 31.9256 198.938 31.9255C196.954 31.9255 195.961 32.9118 195.959 34.8843V41.2535H192.175V28.6629H195.918V30.2641C196.109 29.9865 196.338 29.7368 196.598 29.5223C196.87 29.2976 197.173 29.1133 197.498 28.9749C197.798 28.8534 198.114 28.7741 198.437 28.7395C198.76 28.7063 199.086 28.6899 199.411 28.6902L199.838 28.693ZM208.874 33.5185L212.898 41.2617H209.248L206.545 35.7629L204.988 37.3504V41.2562H201.252V24.549H204.988V33.6471L209.023 29.0242H213L208.874 33.5185ZM167.716 45.3865H163.973V28.6629H167.716V45.3865ZM176.398 35.2593C176.407 36.1202 176.294 36.9782 176.062 37.8075C175.86 38.5304 175.525 39.2098 175.074 39.8111C174.654 40.3631 174.11 40.8101 173.486 41.1166C172.818 41.4326 172.086 41.5901 171.347 41.5765C170.794 41.5883 170.244 41.4909 169.729 41.2898C169.214 41.0887 168.744 40.788 168.347 40.405V37.9416C168.576 38.2337 168.873 38.4663 169.212 38.6198C169.552 38.7732 169.923 38.8429 170.295 38.823C172.163 38.823 173.097 37.563 173.097 35.043C173.14 34.0912 172.867 33.1517 172.321 32.3689C172.099 32.0468 171.799 31.7841 171.45 31.6042C171.101 31.4242 170.713 31.3325 170.32 31.337C169.94 31.334 169.564 31.4202 169.223 31.5885C168.882 31.7568 168.585 32.0026 168.358 32.3059V32.3224V29.6865C169.104 29.0218 170.081 28.6723 171.083 28.7121C171.82 28.7057 172.549 28.8579 173.221 29.1583C173.876 29.455 174.454 29.8981 174.909 30.4529C175.403 31.0659 175.776 31.7661 176.01 32.5167C176.283 33.4077 176.414 34.336 176.398 35.2675V35.2593Z" fill="white"/>
</svg>
